<svg viewBox="0 0 800 500" xmlns="http://www.w3.org/2000/svg">
  <defs>
    <style>
      .bg { fill: #1a1a1a; }
      .client { fill: #48bb78; stroke: #68d391; stroke-width: 2; }
      .gateway { fill: #ed8936; stroke: #f6ad55; stroke-width: 2; }
      .service { fill: #4299e1; stroke: #63b3ed; stroke-width: 2; }
      .middleware { fill: #9f7aea; stroke: #b794f6; stroke-width: 2; }
      .text { fill: #e2e8f0; font-family: Arial, sans-serif; font-size: 11px; }
      .title { fill: #f7fafc; font-family: Arial, sans-serif; font-size: 14px; font-weight: bold; }
      .arrow { stroke: #cbd5e0; stroke-width: 2; fill: none; marker-end: url(#arrowhead); }
      .function-text { fill: #f7fafc; font-family: Arial, sans-serif; font-size: 9px; }
    </style>
    <marker id="arrowhead" markerWidth="8" markerHeight="6" refX="7" refY="3" orient="auto">
      <polygon points="0 0, 8 3, 0 6" fill="#cbd5e0" />
    </marker>
  </defs>
  
  <rect width="800" height="500" class="bg"/>
  
  <!-- Título -->
  <text x="400" y="25" text-anchor="middle" class="title">API Gateway - Patrón de Agregación y Enrutamiento</text>
  
  <!-- Cliente -->
  <g transform="translate(350, 60)">
    <rect x="0" y="0" width="100" height="40" class="client" rx="6"/>
    <text x="50" y="25" text-anchor="middle" class="title">Claude Client</text>
  </g>
  
  <!-- Request flow -->
  <text x="400" y="130" text-anchor="middle" class="text">Request: "Autenticar usuario y obtener sus documentos"</text>
  
  <!-- API Gateway con middleware stack -->
  <g transform="translate(250, 150)">
    <rect x="0" y="0" width="300" height="120" class="gateway" rx="8"/>
    <text x="150" y="20" text-anchor="middle" class="title">API Gateway - Puerto 3000</text>
    
    <!-- Middleware Stack -->
    <g transform="translate(10, 30)">
      <rect x="0" y="0" width="280" height="15" class="middleware" rx="3"/>
      <text x="140" y="10" text-anchor="middle" class="function-text">1. Rate Limiting & CORS</text>
    </g>
    
    <g transform="translate(10, 50)">
      <rect x="0" y="0" width="280" height="15" class="middleware" rx="3"/>
      <text x="140" y="10" text-anchor="middle" class="function-text">2. Authentication Validation</text>
    </g>
    
    <g transform="translate(10, 70)">
      <rect x="0" y="0" width="280" height="15" class="middleware" rx="3"/>
      <text x="140" y="10" text-anchor="middle" class="function-text">3. Request Routing & Load Balancing</text>
    </g>
    
    <g transform="translate(10, 90)">
      <rect x="0" y="0" width="280" height="15" class="middleware" rx="3"/>
      <text x="140" y="10" text-anchor="middle" class="function-text">4. Response Aggregation & Transformation</text>
    </g>
  </g>
  
  <!-- Servicios -->
  <g transform="translate(50, 320)">
    <rect x="0" y="0" width="120" height="60" class="service" rx="6"/>
    <text x="60" y="20" text-anchor="middle" class="title">Auth Service</text>
    <text x="60" y="35" text-anchor="middle" class="text">POST /auth/login</text>
    <text x="60" y="50" text-anchor="middle" class="text">:3001</text>
  </g>
  
  <g transform="translate(200, 320)">
    <rect x="0" y="0" width="120" height="60" class="service" rx="6"/>
    <text x="60" y="20" text-anchor="middle" class="title">User Service</text>
    <text x="60" y="35" text-anchor="middle" class="text">GET /users/profile</text>
    <text x="60" y="50" text-anchor="middle" class="text">:3002</text>
  </g>
  
  <g transform="translate(350, 320)">
    <rect x="0" y="0" width="120" height="60" class="service" rx="6"/>
    <text x="60" y="20" text-anchor="middle" class="title">Document Service</text>
    <text x="60" y="35" text-anchor="middle" class="text">GET /documents</text>
    <text x="60" y="50" text-anchor="middle" class="text">:3003</text>
  </g>
  
  <g transform="translate(500, 320)">
    <rect x="0" y="0" width="120" height="60" class="service" rx="6"/>
    <text x="60" y="20" text-anchor="middle" class="title">Search Service</text>
    <text x="60" y="35" text-anchor="middle" class="text">GET /search</text>
    <text x="60" y="50" text-anchor="middle" class="text">:3005</text>
  </g>
  
  <!-- Flujo de request -->
  <line x1="400" y1="100" x2="400" y2="150" class="arrow"/>
  
  <!-- Gateway a servicios -->
  <line x1="300" y1="270" x2="110" y2="320" class="arrow"/>
  <line x1="350" y1="270" x2="260" y2="320" class="arrow"/>
  <line x1="450" y1="270" x2="410" y2="320" class="arrow"/>
  <line x1="500" y1="270" x2="560" y2="320" class="arrow"/>
  
  <!-- Ventajas del API Gateway -->
  <g transform="translate(630, 150)">
    <text x="0" y="0" class="title">Ventajas:</text>
    <text x="0" y="20" class="text">✓ Punto único de entrada</text>
    <text x="0" y="35" class="text">✓ Autenticación centralizada</text>
    <text x="0" y="50" class="text">✓ Rate limiting</text>
    <text x="0" y="65" class="text">✓ Load balancing</text>
    <text x="0" y="80" class="text">✓ Response aggregation</text>
    <text x="0" y="95" class="text">✓ Protocol translation</text>
    <text x="0" y="110" class="text">✓ Monitoring centralizado</text>
  </g>
  
  <!-- Ejemplo de agregación -->
  <g transform="translate(50, 420)">
    <text x="0" y="0" class="text" font-weight="bold">Ejemplo de Response Aggregation:</text>
    <text x="0" y="15" class="text" font-size="9">1. Auth Service → { token: "jwt123", user: {...} }</text>
    <text x="0" y="28" class="text" font-size="9">2. Document Service → { documents: [...] }</text>
    <text x="0" y="41" class="text" font-size="9">3. Gateway → { user: {...}, token: "jwt123", documents: [...] }</text>
  </g>
</svg>