<svg viewBox="0 0 900 600" xmlns="http://www.w3.org/2000/svg">
  <defs>
    <style>
      .bg { fill: #1a1a1a; }
      .client { fill: #48bb78; stroke: #68d391; stroke-width: 2; }
      .gateway { fill: #ed8936; stroke: #f6ad55; stroke-width: 2; }
      .service { fill: #4299e1; stroke: #63b3ed; stroke-width: 2; }
      .database { fill: #9f7aea; stroke: #b794f6; stroke-width: 2; }
      .message-queue { fill: #f56565; stroke: #fc8181; stroke-width: 2; }
      .text { fill: #e2e8f0; font-family: Inter, system-ui, sans-serif; font-size: 11px; }
      .title { fill: #f7fafc; font-family: Inter, system-ui, sans-serif; font-size: 16px; font-weight: bold; }
      .service-title { fill: #f7fafc; font-family: Inter, system-ui, sans-serif; font-size: 12px; font-weight: bold; }
      .arrow { stroke: #cbd5e0; stroke-width: 1.5; fill: none; marker-end: url(#arrowhead); }
      .dashed { stroke-dasharray: 5,5; }
    </style>
    <marker id="arrowhead" markerWidth="8" markerHeight="6" refX="7" refY="3" orient="auto">
      <polygon points="0 0, 8 3, 0 6" fill="#cbd5e0" />
    </marker>
  </defs>
  
  <rect width="900" height="600" class="bg"/>
  
  <!-- Título -->
  <text x="450" y="30" text-anchor="middle" class="title">Sistema de Gestión Documental - Arquitectura MCP</text>
  
  <!-- Cliente -->
  <g transform="translate(400, 60)">
    <rect x="0" y="0" width="100" height="50" class="client" rx="8"/>
    <text x="50" y="25" text-anchor="middle" class="service-title">Claude AI</text>
    <text x="50" y="40" text-anchor="middle" class="text">Cliente MCP</text>
  </g>
  
  <!-- API Gateway -->
  <g transform="translate(375, 150)">
    <rect x="0" y="0" width="150" height="60" class="gateway" rx="8"/>
    <text x="75" y="25" text-anchor="middle" class="service-title">API Gateway</text>
    <text x="75" y="40" text-anchor="middle" class="text">Enrutamiento y Auth</text>
    <text x="75" y="55" text-anchor="middle" class="text">Puerto: 3000</text>
  </g>
  
  <!-- Servicios MCP -->
  <!-- Auth Service -->
  <g transform="translate(50, 260)">
    <rect x="0" y="0" width="120" height="80" class="service" rx="6"/>
    <text x="60" y="20" text-anchor="middle" class="service-title">Auth Service</text>
    <text x="60" y="35" text-anchor="middle" class="text">- login/logout</text>
    <text x="60" y="50" text-anchor="middle" class="text">- token validation</text>
    <text x="60" y="65" text-anchor="middle" class="text">Puerto: 3001</text>
  </g>
  
  <!-- User Service -->
  <g transform="translate(200, 260)">
    <rect x="0" y="0" width="120" height="80" class="service" rx="6"/>
    <text x="60" y="20" text-anchor="middle" class="service-title">User Service</text>
    <text x="60" y="35" text-anchor="middle" class="text">- user profiles</text>
    <text x="60" y="50" text-anchor="middle" class="text">- permissions</text>
    <text x="60" y="65" text-anchor="middle" class="text">Puerto: 3002</text>
  </g>
  
  <!-- Document Service -->
  <g transform="translate(350, 260)">
    <rect x="0" y="0" width="120" height="80" class="service" rx="6"/>
    <text x="60" y="20" text-anchor="middle" class="service-title">Document Service</text>
    <text x="60" y="35" text-anchor="middle" class="text">- CRUD documents</text>
    <text x="60" y="50" text-anchor="middle" class="text">- metadata</text>
    <text x="60" y="65" text-anchor="middle" class="text">Puerto: 3003</text>
  </g>
  
  <!-- File Service -->
  <g transform="translate(500, 260)">
    <rect x="0" y="0" width="120" height="80" class="service" rx="6"/>
    <text x="60" y="20" text-anchor="middle" class="service-title">File Service</text>
    <text x="60" y="35" text-anchor="middle" class="text">- file upload</text>
    <text x="60" y="50" text-anchor="middle" class="text">- storage</text>
    <text x="60" y="65" text-anchor="middle" class="text">Puerto: 3004</text>
  </g>
  
  <!-- Search Service -->
  <g transform="translate(650, 260)">
    <rect x="0" y="0" width="120" height="80" class="service" rx="6"/>
    <text x="60" y="20" text-anchor="middle" class="service-title">Search Service</text>
    <text x="60" y="35" text-anchor="middle" class="text">- full-text search</text>
    <text x="60" y="50" text-anchor="middle" class="text">- indexing</text>
    <text x="60" y="65" text-anchor="middle" class="text">Puerto: 3005</text>
  </g>
  
  <!-- Analytics Service -->
  <g transform="translate(800, 260)">
    <rect x="0" y="0" width="120" height="80" class="service" rx="6"/>
    <text x="60" y="20" text-anchor="middle" class="service-title">Analytics Service</text>
    <text x="60" y="35" text-anchor="middle" class="text">- usage metrics</text>
    <text x="60" y="50" text-anchor="middle" class="text">- reports</text>
    <text x="60" y="65" text-anchor="middle" class="text">Puerto: 3006</text>
  </g>
  
  <!-- Bases de Datos -->
  <g transform="translate(50, 400)">
    <ellipse cx="60" cy="30" rx="50" ry="20" class="database"/>
    <text x="60" y="35" text-anchor="middle" class="text">Auth DB</text>
  </g>
  
  <g transform="translate(200, 400)">
    <ellipse cx="60" cy="30" rx="50" ry="20" class="database"/>
    <text x="60" y="35" text-anchor="middle" class="text">Users DB</text>
  </g>
  
  <g transform="translate(350, 400)">
    <ellipse cx="60" cy="30" rx="50" ry="20" class="database"/>
    <text x="60" y="35" text-anchor="middle" class="text">Docs DB</text>
  </g>
  
  <g transform="translate(500, 400)">
    <ellipse cx="60" cy="30" rx="50" ry="20" class="database"/>
    <text x="60" y="35" text-anchor="middle" class="text">Files Storage</text>
  </g>
  
  <g transform="translate(650, 400)">
    <ellipse cx="60" cy="30" rx="50" ry="20" class="database"/>
    <text x="60" y="35" text-anchor="middle" class="text">Search Index</text>
  </g>
  
  <!-- Message Queue -->
  <g transform="translate(375, 480)">
    <rect x="0" y="0" width="150" height="40" class="message-queue" rx="6"/>
    <text x="75" y="25" text-anchor="middle" class="service-title">Message Queue</text>
    <text x="75" y="35" text-anchor="middle" class="text">Events & Notifications</text>
  </g>
  
  <!-- Conexiones -->
  <!-- Cliente a Gateway -->
  <line x1="450" y1="110" x2="450" y2="150" class="arrow"/>
  
  <!-- Gateway a Servicios -->
  <line x1="400" y1="210" x2="110" y2="260" class="arrow"/>
  <line x1="420" y1="210" x2="260" y2="260" class="arrow"/>
  <line x1="450" y1="210" x2="410" y2="260" class="arrow"/>
  <line x1="480" y1="210" x2="560" y2="260" class="arrow"/>
  <line x1="500" y1="210" x2="710" y2="260" class="arrow"/>
  <line x1="520" y1="210" x2="860" y2="260" class="arrow"/>
  
  <!-- Servicios a Bases de Datos -->
  <line x1="110" y1="340" x2="110" y2="400" class="arrow"/>
  <line x1="260" y1="340" x2="260" y2="400" class="arrow"/>
  <line x1="410" y1="340" x2="410" y2="400" class="arrow"/>
  <line x1="560" y1="340" x2="560" y2="400" class="arrow"/>
  <line x1="710" y1="340" x2="710" y2="400" class="arrow"/>
  
  <!-- Comunicación entre servicios (ejemplos) -->
  <line x1="170" y1="300" x2="200" y2="300" class="arrow dashed"/>
  <line x1="320" y1="300" x2="350" y2="300" class="arrow dashed"/>
  <line x1="470" y1="300" x2="500" y2="300" class="arrow dashed"/>
  
  <!-- Servicios a Message Queue -->
  <line x1="410" y1="340" x2="440" y2="480" class="arrow dashed"/>
  <line x1="560" y1="340" x2="470" y2="480" class="arrow dashed"/>
  
  <!-- Leyenda -->
  <g transform="translate(50, 550)">
    <text x="0" y="0" class="text" font-weight="bold">Leyenda:</text>
    <line x1="60" y1="-5" x2="80" y2="-5" class="arrow"/>
    <text x="85" y="0" class="text">HTTP/MCP</text>
    <line x1="150" y1="-5" x2="170" y2="-5" class="arrow dashed"/>
    <text x="175" y="0" class="text">Async/Events</text>
  </g>
</svg>