<svg viewBox="0 0 1200 800" xmlns="http://www.w3.org/2000/svg">
  <!-- Background -->
  <rect width="1200" height="800" fill="#0f172a"/>
  
  <!-- Title -->
  <text x="600" y="30" text-anchor="middle" fill="#f8fafc" font-size="24" font-weight="bold">Dominios del Proyecto Final MCP</text>
  
  <!-- E-commerce Domain -->
  <rect x="50" y="80" width="350" height="640" fill="#1e293b" stroke="#10b981" stroke-width="3" rx="12"/>
  <text x="225" y="110" text-anchor="middle" fill="#10b981" font-size="18" font-weight="bold">E-commerce Inteligente</text>
  
  <!-- E-commerce complexity indicators -->
  <rect x="70" y="130" width="310" height="40" fill="#064e3b" stroke="#10b981" stroke-width="1" rx="6"/>
  <text x="225" y="152" text-anchor="middle" fill="#10b981" font-size="12" font-weight="bold">Complejidad: Intermedia-Alta</text>
  
  <!-- E-commerce features -->
  <text x="80" y="190" fill="#f8fafc" font-size="14" font-weight="bold">Características Clave:</text>
  
  <rect x="80" y="200" width="290" height="25" fill="#0f766e" stroke="#10b981" stroke-width="1" rx="4"/>
  <text x="90" y="217" fill="#f8fafc" font-size="11">• Gestión inteligente de inventario</text>
  
  <rect x="80" y="230" width="290" height="25" fill="#0f766e" stroke="#10b981" stroke-width="1" rx="4"/>
  <text x="90" y="247" fill="#f8fafc" font-size="11">• Procesamiento de órdenes</text>
  
  <rect x="80" y="260" width="290" height="25" fill="#0f766e" stroke="#10b981" stroke-width="1" rx="4"/>
  <text x="90" y="277" fill="#f8fafc" font-size="11">• Análisis de tendencias de venta</text>
  
  <rect x="80" y="290" width="290" height="25" fill="#0f766e" stroke="#10b981" stroke-width="1" rx="4"/>
  <text x="90" y="307" fill="#f8fafc" font-size="11">• Recomendaciones personalizadas</text>
  
  <rect x="80" y="320" width="290" height="25" fill="#0f766e" stroke="#10b981" stroke-width="1" rx="4"/>
  <text x="90" y="337" fill="#f8fafc" font-size="11">• Integración con pagos</text>
  
  <!-- E-commerce tech stack -->
  <text x="80" y="370" fill="#f8fafc" font-size="14" font-weight="bold">Stack Tecnológico:</text>
  
  <rect x="80" y="380" width="290" height="25" fill="#134e4a" stroke="#10b981" stroke-width="1" rx="4"/>
  <text x="90" y="397" fill="#f8fafc" font-size="11">• Node.js + TypeScript</text>
  
  <rect x="80" y="410" width="290" height="25" fill="#134e4a" stroke="#10b981" stroke-width="1" rx="4"/>
  <text x="90" y="427" fill="#f8fafc" font-size="11">• PostgreSQL + Prisma</text>
  
  <rect x="80" y="440" width="290" height="25" fill="#134e4a" stroke="#10b981" stroke-width="1" rx="4"/>
  <text x="90" y="457" fill="#f8fafc" font-size="11">• Redis para cache</text>
  
  <rect x="80" y="470" width="290" height="25" fill="#134e4a" stroke="#10b981" stroke-width="1" rx="4"/>
  <text x="90" y="487" fill="#f8fafc" font-size="11">• Stripe API</text>
  
  <!-- E-commerce learning focus -->
  <text x="80" y="520" fill="#f8fafc" font-size="14" font-weight="bold">Enfoque de Aprendizaje:</text>
  
  <rect x="80" y="530" width="290" height="40" fill="#15803d" stroke="#10b981" stroke-width="1" rx="4"/>
  <text x="90" y="545" fill="#f8fafc" font-size="10">• Transacciones complejas</text>
  <text x="90" y="560" fill="#f8fafc" font-size="10">• Integraciones de terceros</text>
  
  <rect x="80" y="580" width="290" height="40" fill="#15803d" stroke="#10b981" stroke-width="1" rx="4"/>
  <text x="90" y="595" fill="#f8fafc" font-size="10">• Análisis de datos en tiempo real</text>
  <text x="90" y="610" fill="#f8fafc" font-size="10">• Escalabilidad de sistema</text>
  
  <rect x="80" y="630" width="290" height="40" fill="#15803d" stroke="#10b981" stroke-width="1" rx="4"/>
  <text x="90" y="645" fill="#f8fafc" font-size="10">• Manejo de concurrencia</text>
  <text x="90" y="660" fill="#f8fafc" font-size="10">• Optimización de performance</text>
  
  <!-- Healthcare Domain -->
  <rect x="425" y="80" width="350" height="640" fill="#1e293b" stroke="#3b82f6" stroke-width="3" rx="12"/>
  <text x="600" y="110" text-anchor="middle" fill="#3b82f6" font-size="18" font-weight="bold">Healthcare Assistant</text>
  
  <!-- Healthcare complexity indicators -->
  <rect x="445" y="130" width="310" height="40" fill="#1e3a8a" stroke="#3b82f6" stroke-width="1" rx="6"/>
  <text x="600" y="152" text-anchor="middle" fill="#3b82f6" font-size="12" font-weight="bold">Complejidad: Alta</text>
  
  <!-- Healthcare features -->
  <text x="455" y="190" fill="#f8fafc" font-size="14" font-weight="bold">Características Clave:</text>
  
  <rect x="455" y="200" width="290" height="25" fill="#1d4ed8" stroke="#3b82f6" stroke-width="1" rx="4"/>
  <text x="465" y="217" fill="#f8fafc" font-size="11">• Gestión de historias clínicas</text>
  
  <rect x="455" y="230" width="290" height="25" fill="#1d4ed8" stroke="#3b82f6" stroke-width="1" rx="4"/>
  <text x="465" y="247" fill="#f8fafc" font-size="11">• Agendamiento inteligente</text>
  
  <rect x="455" y="260" width="290" height="25" fill="#1d4ed8" stroke="#3b82f6" stroke-width="1" rx="4"/>
  <text x="465" y="277" fill="#f8fafc" font-size="11">• Análisis de síntomas</text>
  
  <rect x="455" y="290" width="290" height="25" fill="#1d4ed8" stroke="#3b82f6" stroke-width="1" rx="4"/>
  <text x="465" y="307" fill="#f8fafc" font-size="11">• Recordatorios de medicamentos</text>
  
  <rect x="455" y="320" width="290" height="25" fill="#1d4ed8" stroke="#3b82f6" stroke-width="1" rx="4"/>
  <text x="465" y="337" fill="#f8fafc" font-size="11">• Integración con laboratorios</text>
  
  <!-- Healthcare tech stack -->
  <text x="455" y="370" fill="#f8fafc" font-size="14" font-weight="bold">Stack Tecnológico:</text>
  
  <rect x="455" y="380" width="290" height="25" fill="#1e40af" stroke="#3b82f6" stroke-width="1" rx="4"/>
  <text x="465" y="397" fill="#f8fafc" font-size="11">• Python + FastAPI</text>
  
  <rect x="455" y="410" width="290" height="25" fill="#1e40af" stroke="#3b82f6" stroke-width="1" rx="4"/>
  <text x="465" y="427" fill="#f8fafc" font-size="11">• PostgreSQL + SQLAlchemy</text>
  
  <rect x="455" y="440" width="290" height="25" fill="#1e40af" stroke="#3b82f6" stroke-width="1" rx="4"/>
  <text x="465" y="457" fill="#f8fafc" font-size="11">• HL7 FHIR Standards</text>
  
  <rect x="455" y="470" width="290" height="25" fill="#1e40af" stroke="#3b82f6" stroke-width="1" rx="4"/>
  <text x="465" y="487" fill="#f8fafc" font-size="11">• Encryption at rest</text>
  
  <!-- Healthcare learning focus -->
  <text x="455" y="520" fill="#f8fafc" font-size="14" font-weight="bold">Enfoque de Aprendizaje:</text>
  
  <rect x="455" y="530" width="290" height="40" fill="#2563eb" stroke="#3b82f6" stroke-width="1" rx="4"/>
  <text x="465" y="545" fill="#f8fafc" font-size="10">• Seguridad y privacidad avanzada</text>
  <text x="465" y="560" fill="#f8fafc" font-size="10">• Cumplimiento regulatorio</text>
  
  <rect x="455" y="580" width="290" height="40" fill="#2563eb" stroke="#3b82f6" stroke-width="1" rx="4"/>
  <text x="465" y="595" fill="#f8fafc" font-size="10">• Manejo de datos sensibles</text>
  <text x="465" y="610" fill="#f8fafc" font-size="10">• Auditoria completa</text>
  
  <rect x="455" y="630" width="290" height="40" fill="#2563eb" stroke="#3b82f6" stroke-width="1" rx="4"/>
  <text x="465" y="645" fill="#f8fafc" font-size="10">• Integración con estándares</text>
  <text x="465" y="660" fill="#f8fafc" font-size="10">• Arquitectura de alta disponibilidad</text>
  
  <!-- DevOps Domain -->
  <rect x="800" y="80" width="350" height="640" fill="#1e293b" stroke="#f59e0b" stroke-width="3" rx="12"/>
  <text x="975" y="110" text-anchor="middle" fill="#f59e0b" font-size="18" font-weight="bold">DevOps Orchestrator</text>
  
  <!-- DevOps complexity indicators -->
  <rect x="820" y="130" width="310" height="40" fill="#92400e" stroke="#f59e0b" stroke-width="1" rx="6"/>
  <text x="975" y="152" text-anchor="middle" fill="#f59e0b" font-size="12" font-weight="bold">Complejidad: Muy Alta</text>
  
  <!-- DevOps features -->
  <text x="830" y="190" fill="#f8fafc" font-size="14" font-weight="bold">Características Clave:</text>
  
  <rect x="830" y="200" width="290" height="25" fill="#d97706" stroke="#f59e0b" stroke-width="1" rx="4"/>
  <text x="840" y="217" fill="#f8fafc" font-size="11">• Orquestación de despliegues</text>
  
  <rect x="830" y="230" width="290" height="25" fill="#d97706" stroke="#f59e0b" stroke-width="1" rx="4"/>
  <text x="840" y="247" fill="#f8fafc" font-size="11">• Monitoreo en tiempo real</text>
  
  <rect x="830" y="260" width="290" height="25" fill="#d97706" stroke="#f59e0b" stroke-width="1" rx="4"/>
  <text x="840" y="277" fill="#f8fafc" font-size="11">• Gestión de infraestructura</text>
  
  <rect x="830" y="290" width="290" height="25" fill="#d97706" stroke="#f59e0b" stroke-width="1" rx="4"/>
  <text x="840" y="307" fill="#f8fafc" font-size="11">• Análisis de logs distribuidos</text>
  
  <rect x="830" y="320" width="290" height="25" fill="#d97706" stroke="#f59e0b" stroke-width="1" rx="4"/>
  <text x="840" y="337" fill="#f8fafc" font-size="11">• Alertas inteligentes</text>
  
  <!-- DevOps tech stack -->
  <text x="830" y="370" fill="#f8fafc" font-size="14" font-weight="bold">Stack Tecnológico:</text>
  
  <rect x="830" y="380" width="290" height="25" fill="#b45309" stroke="#f59e0b" stroke-width="1" rx="4"/>
  <text x="840" y="397" fill="#f8fafc" font-size="11">• Go + Node.js híbrido</text>
  
  <rect x="830" y="410" width="290" height="25" fill="#b45309" stroke="#f59e0b" stroke-width="1" rx="4"/>
  <text x="840" y="427" fill="#f8fafc" font-size="11">• TimescaleDB + InfluxDB</text>
  
  <rect x="830" y="440" width="290" height="25" fill="#b45309" stroke="#f59e0b" stroke-width="1" rx="4"/>
  <text x="840" y="457" fill="#f8fafc" font-size="11">• Kubernetes APIs</text>
  
  <rect x="830" y="470" width="290" height="25" fill="#b45309" stroke="#f59e0b" stroke-width="1" rx="4"/>
  <text x="840" y="487" fill="#f8fafc" font-size="11">• Prometheus + Grafana</text>
  
  <!-- DevOps learning focus -->
  <text x="830" y="520" fill="#f8fafc" font-size="14" font-weight="bold">Enfoque de Aprendizaje:</text>
  
  <rect x="830" y="530" width="290" height="40" fill="#f59e0b" stroke="#f59e0b" stroke-width="1" rx="4"/>
  <text x="840" y="545" fill="#f8fafc" font-size="10">• Sistemas distribuidos</text>
  <text x="840" y="560" fill="#f8fafc" font-size="10">• Orquestación compleja</text>
  
  <rect x="830" y="580" width="290" height="40" fill="#f59e0b" stroke="#f59e0b" stroke-width="1" rx="4"/>
  <text x="840" y="595" fill="#f8fafc" font-size="10">• Processing de streams</text>
  <text x="840" y="610" fill="#f8fafc" font-size="10">• Machine learning ops</text>
  
  <rect x="830" y="630" width="290" height="40" fill="#f59e0b" stroke="#f59e0b" stroke-width="1" rx="4"/>
  <text x="840" y="645" fill="#f8fafc" font-size="10">• Tolerancia a fallos</text>
  <text x="840" y="660" fill="#f8fafc" font-size="10">• Auto-scaling inteligente</text>
</svg>