<svg viewBox="0 0 1000 800" xmlns="http://www.w3.org/2000/svg">
  <defs>
    <pattern id="grid" width="20" height="20" patternUnits="userSpaceOnUse">
      <path d="M 20 0 L 0 0 0 20" fill="none" stroke="#2a2a2a" stroke-width="0.5"/>
    </pattern>
    <linearGradient id="dataFlow" x1="0%" y1="0%" x2="100%" y2="0%">
      <stop offset="0%" style="stop-color:#3b82f6;stop-opacity:1" />
      <stop offset="100%" style="stop-color:#10b981;stop-opacity:1" />
    </linearGradient>
    <radialGradient id="alertGlow" cx="50%" cy="50%" r="50%">
      <stop offset="0%" style="stop-color:#ef4444;stop-opacity:0.8" />
      <stop offset="100%" style="stop-color:#ef4444;stop-opacity:0" />
    </radialGradient>
  </defs>
  
  <!-- Background -->
  <rect width="1000" height="800" fill="#1a1a1a"/>
  <rect width="1000" height="800" fill="url(#grid)" opacity="0.2"/>
  
  <!-- Title -->
  <text x="500" y="30" text-anchor="middle" fill="#ffffff" font-size="22" font-weight="bold">
    Arquitectura de Resiliencia Integrada - MCP Server
  </text>
  <text x="500" y="50" text-anchor="middle" fill="#9ca3af" font-size="14">
    Todos los patrones trabajando en coordinación
  </text>
  
  <!-- Layer 1: Client Requests -->
  <g transform="translate(50, 80)">
    <rect x="0" y="0" width="900" height="60" fill="#374151" stroke="#6b7280" stroke-width="2" rx="8"/>
    <text x="450" y="25" text-anchor="middle" fill="#ffffff" font-size="16" font-weight="bold">
      Capa de Entrada - Requests de Clientes MCP
    </text>
    <text x="450" y="45" text-anchor="middle" fill="#9ca3af" font-size="12">
      Punto de entrada único para todas las operaciones
    </text>
    
    <!-- Client icons -->
    <circle cx="100" cy="30" r="15" fill="#3b82f6"/>
    <text x="100" y="35" text-anchor="middle" fill="#ffffff" font-size="10">CLI</text>
    
    <circle cx="200" cy="30" r="15" fill="#10b981"/>
    <text x="200" y="35" text-anchor="middle" fill="#ffffff" font-size="10">API</text>
    
    <circle cx="300" cy="30" r="15" fill="#f59e0b"/>
    <text x="300" y="35" text-anchor="middle" fill="#ffffff" font-size="10">SDK</text>
    
    <!-- Flow arrows -->
    <path d="M 130 30 L 170 30" stroke="#ffffff" stroke-width="2" marker-end="url(#arrowhead)"/>
    <path d="M 230 30 L 270 30" stroke="#ffffff" stroke-width="2" marker-end="url(#arrowhead)"/>
  </g>
  
  <!-- Layer 2: Load Balancer & Rate Limiting -->
  <g transform="translate(50, 160)">
    <rect x="0" y="0" width="900" height="50" fill="#1f2937" stroke="#4b5563" stroke-width="2" rx="8"/>
    <text x="450" y="30" text-anchor="middle" fill="#ffffff" font-size="14" font-weight="bold">
      Nginx Load Balancer + Rate Limiting + SSL Termination
    </text>
    
    <!-- Rate limiting indicator -->
    <rect x="650" y="10" width="100" height="30" fill="#dc2626" fill-opacity="0.2" stroke="#dc2626" rx="4"/>
    <text x="700" y="28" text-anchor="middle" fill="#dc2626" font-size="10">Rate Limit</text>
  </g>
  
  <!-- Flow from Layer 1 to Layer 2 -->
  <path d="M 500 140 L 500 160" stroke="url(#dataFlow)" stroke-width="4" marker-end="url(#arrowhead)"/>
  
  <!-- Layer 3: Circuit Breakers -->
  <g transform="translate(50, 230)">
    <rect x="0" y="0" width="900" height="80" fill="#065f46" stroke="#10b981" stroke-width="2" rx="8"/>
    <text x="450" y="25" text-anchor="middle" fill="#10b981" font-size="16" font-weight="bold">
      Capa de Circuit Breakers - Primera Línea de Defensa
    </text>
    
    <!-- Circuit Breaker instances -->
    <g transform="translate(150, 35)">
      <circle cx="0" cy="0" r="20" fill="#10b981" stroke="#ffffff" stroke-width="2"/>
      <text x="0" y="5" text-anchor="middle" fill="#ffffff" font-size="8" font-weight="bold">DB</text>
      <text x="0" y="-30" text-anchor="middle" fill="#ffffff" font-size="10">CLOSED</text>
    </g>
    
    <g transform="translate(350, 35)">
      <circle cx="0" cy="0" r="20" fill="#fbbf24" stroke="#ffffff" stroke-width="2"/>
      <text x="0" y="5" text-anchor="middle" fill="#1a1a1a" font-size="8" font-weight="bold">API</text>
      <text x="0" y="-30" text-anchor="middle" fill="#ffffff" font-size="10">HALF-OPEN</text>
    </g>
    
    <g transform="translate(550, 35)">
      <circle cx="0" cy="0" r="20" fill="#ef4444" stroke="#ffffff" stroke-width="2"/>
      <text x="0" y="5" text-anchor="middle" fill="#ffffff" font-size="8" font-weight="bold">CACHE</text>
      <text x="0" y="-30" text-anchor="middle" fill="#ffffff" font-size="10">OPEN</text>
      <circle cx="0" cy="0" r="35" fill="url(#alertGlow)" opacity="0.5"/>
    </g>
    
    <g transform="translate(750, 35)">
      <circle cx="0" cy="0" r="20" fill="#10b981" stroke="#ffffff" stroke-width="2"/>
      <text x="0" y="5" text-anchor="middle" fill="#ffffff" font-size="8" font-weight="bold">EXT</text>
      <text x="0" y="-30" text-anchor="middle" fill="#ffffff" font-size="10">CLOSED</text>
    </g>
  </g>
  
  <!-- Flow from Layer 2 to Layer 3 -->
  <path d="M 500 210 L 500 230" stroke="url(#dataFlow)" stroke-width="4" marker-end="url(#arrowhead)"/>
  
  <!-- Layer 4: Retry Logic -->
  <g transform="translate(50, 330)">
    <rect x="0" y="0" width="900" height="70" fill="#7c2d12" stroke="#f97316" stroke-width="2" rx="8"/>
    <text x="450" y="25" text-anchor="middle" fill="#f97316" font-size="16" font-weight="bold">
      Capa de Retry Logic - Persistencia Inteligente
    </text>
    
    <!-- Retry timeline -->
    <g transform="translate(200, 45)">
      <line x1="0" y1="0" x2="500" y2="0" stroke="#ffffff" stroke-width="2"/>
      
      <!-- Retry attempts -->
      <circle cx="0" cy="0" r="5" fill="#f97316"/>
      <text x="0" y="-15" text-anchor="middle" fill="#ffffff" font-size="9">1st</text>
      
      <circle cx="100" cy="0" r="5" fill="#f97316"/>
      <text x="100" y="-15" text-anchor="middle" fill="#ffffff" font-size="9">2nd</text>
      <text x="50" y="15" text-anchor="middle" fill="#9ca3af" font-size="8">1s</text>
      
      <circle cx="250" cy="0" r="5" fill="#f97316"/>
      <text x="250" y="-15" text-anchor="middle" fill="#ffffff" font-size="9">3rd</text>
      <text x="175" y="15" text-anchor="middle" fill="#9ca3af" font-size="8">2s</text>
      
      <circle cx="500" cy="0" r="5" fill="#10b981"/>
      <text x="500" y="-15" text-anchor="middle" fill="#ffffff" font-size="9">✓</text>
      <text x="375" y="15" text-anchor="middle" fill="#9ca3af" font-size="8">4s</text>
    </g>
  </g>
  
  <!-- Flow from Layer 3 to Layer 4 -->
  <path d="M 500 310 L 500 330" stroke="url(#dataFlow)" stroke-width="4" marker-end="url(#arrowhead)"/>
  
  <!-- Layer 5: Bulkheads -->
  <g transform="translate(50, 420)">
    <rect x="0" y="0" width="900" height="90" fill="#1e3a8a" stroke="#3b82f6" stroke-width="2" rx="8"/>
    <text x="450" y="25" text-anchor="middle" fill="#3b82f6" font-size="16" font-weight="bold">
      Capa de Bulkheads - Aislamiento de Recursos
    </text>
    
    <!-- Bulkhead compartments -->
    <g transform="translate(100, 40)">
      <rect x="0" y="0" width="120" height="40" fill="#3b82f6" fill-opacity="0.3" stroke="#3b82f6" rx="4"/>
      <text x="60" y="15" text-anchor="middle" fill="#ffffff" font-size="10" font-weight="bold">Database Pool</text>
      <text x="60" y="30" text-anchor="middle" fill="#9ca3af" font-size="9">15/20 active</text>
    </g>
    
    <g transform="translate(240, 40)">
      <rect x="0" y="0" width="120" height="40" fill="#3b82f6" fill-opacity="0.6" stroke="#3b82f6" rx="4"/>
      <text x="60" y="15" text-anchor="middle" fill="#ffffff" font-size="10" font-weight="bold">Cache Pool</text>
      <text x="60" y="30" text-anchor="middle" fill="#9ca3af" font-size="9">8/10 active</text>
    </g>
    
    <g transform="translate(380, 40)">
      <rect x="0" y="0" width="120" height="40" fill="#ef4444" fill-opacity="0.8" stroke="#ef4444" rx="4"/>
      <text x="60" y="15" text-anchor="middle" fill="#ffffff" font-size="10" font-weight="bold">API Pool</text>
      <text x="60" y="30" text-anchor="middle" fill="#ffffff" font-size="9">5/5 active</text>
      <text x="60" y="50" text-anchor="middle" fill="#ef4444" font-size="8">FULL!</text>
    </g>
    
    <g transform="translate(520, 40)">
      <rect x="0" y="0" width="120" height="40" fill="#3b82f6" fill-opacity="0.2" stroke="#3b82f6" rx="4"/>
      <text x="60" y="15" text-anchor="middle" fill="#ffffff" font-size="10" font-weight="bold">Analytics Pool</text>
      <text x="60" y="30" text-anchor="middle" fill="#9ca3af" font-size="9">2/15 active</text>
    </g>
    
    <g transform="translate(660, 40)">
      <rect x="0" y="0" width="120" height="40" fill="#6b7280" fill-opacity="0.3" stroke="#6b7280" rx="4"/>
      <text x="60" y="15" text-anchor="middle" fill="#ffffff" font-size="10" font-weight="bold">Queue</text>
      <text x="60" y="30" text-anchor="middle" fill="#9ca3af" font-size="9">12 waiting</text>
    </g>
  </g>
  
  <!-- Flow from Layer 4 to Layer 5 -->
  <path d="M 500 400 L 500 420" stroke="url(#dataFlow)" stroke-width="4" marker-end="url(#arrowhead)"/>
  
  <!-- Layer 6: Resource Access -->
  <g transform="translate(50, 530)">
    <rect x="0" y="0" width="900" height="80" fill="#4c1d95" stroke="#8b5cf6" stroke-width="2" rx="8"/>
    <text x="450" y="25" text-anchor="middle" fill="#8b5cf6" font-size="16" font-weight="bold">
      Capa de Acceso a Recursos - Servicios Finales
    </text>
    
    <!-- Resource boxes -->
    <g transform="translate(100, 35)">
      <rect x="0" y="0" width="100" height="35" fill="#10b981" stroke="#ffffff" stroke-width="1" rx="4"/>
      <text x="50" y="15" text-anchor="middle" fill="#ffffff" font-size="10" font-weight="bold">PostgreSQL</text>
      <text x="50" y="28" text-anchor="middle" fill="#ffffff" font-size="8">✓ Healthy</text>
    </g>
    
    <g transform="translate(220, 35)">
      <rect x="0" y="0" width="100" height="35" fill="#ef4444" stroke="#ffffff" stroke-width="1" rx="4"/>
      <text x="50" y="15" text-anchor="middle" fill="#ffffff" font-size="10" font-weight="bold">Redis Cache</text>
      <text x="50" y="28" text-anchor="middle" fill="#ffffff" font-size="8">✗ Down</text>
    </g>
    
    <g transform="translate(340, 35)">
      <rect x="0" y="0" width="100" height="35" fill="#fbbf24" stroke="#ffffff" stroke-width="1" rx="4"/>
      <text x="50" y="15" text-anchor="middle" fill="#1a1a1a" font-size="10" font-weight="bold">External API</text>
      <text x="50" y="28" text-anchor="middle" fill="#1a1a1a" font-size="8">⚠ Slow</text>
    </g>
    
    <g transform="translate(460, 35)">
      <rect x="0" y="0" width="100" height="35" fill="#10b981" stroke="#ffffff" stroke-width="1" rx="4"/>
      <text x="50" y="15" text-anchor="middle" fill="#ffffff" font-size="10" font-weight="bold">File Storage</text>
      <text x="50" y="28" text-anchor="middle" fill="#ffffff" font-size="8">✓ Healthy</text>
    </g>
    
    <g transform="translate(580, 35)">
      <rect x="0" y="0" width="100" height="35" fill="#6b7280" stroke="#ffffff" stroke-width="1" rx="4"/>
      <text x="50" y="15" text-anchor="middle" fill="#ffffff" font-size="10" font-weight="bold">Backup Site</text>
      <text x="50" y="28" text-anchor="middle" fill="#ffffff" font-size="8">⏸ Standby</text>
    </g>
    
    <g transform="translate(700, 35)">
      <rect x="0" y="0" width="100" height="35" fill="#10b981" stroke="#ffffff" stroke-width="1" rx="4"/>
      <text x="50" y="15" text-anchor="middle" fill="#ffffff" font-size="10" font-weight="bold">Monitoring</text>
      <text x="50" y="28" text-anchor="middle" fill="#ffffff" font-size="8">✓ Active</text>
    </g>
  </g>
  
  <!-- Flow from Layer 5 to Layer 6 -->
  <path d="M 500 510 L 500 530" stroke="url(#dataFlow)" stroke-width="4" marker-end="url(#arrowhead)"/>
  
  <!-- Side Panel: Health Monitoring -->
  <g transform="translate(50, 630)">
    <rect x="0" y="0" width="280" height="120" fill="#1f2937" stroke="#10b981" stroke-width="2" rx="8"/>
    <text x="140" y="25" text-anchor="middle" fill="#10b981" font-size="14" font-weight="bold">
      Health Monitoring
    </text>
    
    <!-- Health indicators -->
    <g transform="translate(20, 40)">
      <circle cx="0" cy="0" r="8" fill="#10b981"/>
      <text x="20" y="5" fill="#ffffff" font-size="10">System Health: HEALTHY</text>
    </g>
    
    <g transform="translate(20, 60)">
      <circle cx="0" cy="0" r="8" fill="#fbbf24"/>
      <text x="20" y="5" fill="#ffffff" font-size="10">Cache: DEGRADED</text>
    </g>
    
    <g transform="translate(20, 80)">
      <circle cx="0" cy="0" r="8" fill="#10b981"/>
      <text x="20" y="5" fill="#ffffff" font-size="10">Recovery: READY</text>
    </g>
    
    <g transform="translate(20, 100)">
      <circle cx="0" cy="0" r="8" fill="#3b82f6"/>
      <text x="20" y="5" fill="#ffffff" font-size="10">Metrics: COLLECTING</text>
    </g>
  </g>
  
  <!-- Side Panel: Disaster Recovery -->
  <g transform="translate(350, 630)">
    <rect x="0" y="0" width="280" height="120" fill="#1f2937" stroke="#ef4444" stroke-width="2" rx="8"/>
    <text x="140" y="25" text-anchor="middle" fill="#ef4444" font-size="14" font-weight="bold">
      Disaster Recovery
    </text>
    
    <g transform="translate(20, 40)">
      <text x="0" y="5" fill="#ffffff" font-size="10">RTO: &lt; 5 minutes</text>
      <text x="0" y="20" fill="#ffffff" font-size="10">RPO: &lt; 1 minute</text>
      <text x="0" y="35" fill="#ffffff" font-size="10">Mode: Active-Passive</text>
      <text x="0" y="50" fill="#ffffff" font-size="10">Last Backup: 2 min ago</text>
      <text x="0" y="65" fill="#10b981" font-size="10">Status: READY</text>
    </g>
  </g>
  
  <!-- Side Panel: Observability -->
  <g transform="translate(650, 630)">
    <rect x="0" y="0" width="300" height="120" fill="#1f2937" stroke="#8b5cf6" stroke-width="2" rx="8"/>
    <text x="150" y="25" text-anchor="middle" fill="#8b5cf6" font-size="14" font-weight="bold">
      Observability & Metrics
    </text>
    
    <g transform="translate(20, 40)">
      <text x="0" y="5" fill="#ffffff" font-size="10">Requests/sec: 1,247</text>
      <text x="0" y="20" fill="#ffffff" font-size="10">Success Rate: 99.2%</text>
      <text x="0" y="35" fill="#ffffff" font-size="10">Avg Response: 85ms</text>
      <text x="0" y="50" fill="#ffffff" font-size="10">Active Alerts: 1</text>
      <text x="0" y="65" fill="#fbbf24" font-size="10">Cache degraded</text>
    </g>
  </g>
  
  <!-- Arrow definitions -->
  <defs>
    <marker id="arrowhead" markerWidth="10" markerHeight="7" refX="9" refY="3.5" orient="auto">
      <polygon points="0 0, 10 3.5, 0 7" fill="currentColor"/>
    </marker>
  </defs>
  
  <!-- Feedback loops -->
  <path d="M 950 550 Q 980 400 950 250" stroke="#8b5cf6" stroke-width="2" fill="none" 
        stroke-dasharray="5,5" marker-end="url(#arrowhead)"/>
  <text x="970" y="400" fill="#8b5cf6" font-size="10" transform="rotate(90 970 400)">
    Metrics Feedback
  </text>
  
  <!-- Degradation path -->
  <path d="M 720 570 Q 750 450 800 330" stroke="#fbbf24" stroke-width="3" fill="none" 
        stroke-dasharray="8,4" marker-end="url(#arrowhead)"/>
  <text x="760" y="450" fill="#fbbf24" font-size="10">
    Degradation Path
  </text>
  
  <!-- Legend -->
  <g transform="translate(50, 760)">
    <text x="0" y="0" fill="#ffffff" font-size="12" font-weight="bold">Leyenda:</text>
    <line x1="60" x2="80" y1="-5" y2="-5" stroke="url(#dataFlow)" stroke-width="3"/>
    <text x="85" y="0" fill="#9ca3af" font-size="10">Flujo Normal</text>
    
    <line x1="170" x2="190" y1="-5" y2="-5" stroke="#fbbf24" stroke-width="3" stroke-dasharray="8,4"/>
    <text x="195" y="0" fill="#9ca3af" font-size="10">Degradación</text>
    
    <line x1="280" x2="300" y1="-5" y2="-5" stroke="#8b5cf6" stroke-width="2" stroke-dasharray="5,5"/>
    <text x="305" y="0" fill="#9ca3af" font-size="10">Feedback</text>
    
    <circle cx="400" cy="-5" r="5" fill="#10b981"/>
    <text x="410" y="0" fill="#9ca3af" font-size="10">Saludable</text>
    
    <circle cx="480" cy="-5" r="5" fill="#ef4444"/>
    <text x="490" y="0" fill="#9ca3af" font-size="10">Falló</text>
  </g>
</svg>