<svg viewBox="0 0 1200 800" xmlns="http://www.w3.org/2000/svg">
  <defs>
    <style>
      .bg { fill: #1a1a1a; }
      .primary { fill: #4f46e5; }
      .secondary { fill: #06b6d4; }
      .accent { fill: #10b981; }
      .warning { fill: #f59e0b; }
      .error { fill: #ef4444; }
      .success { fill: #22c55e; }
      .text { fill: #f8fafc; font-family: 'Arial', sans-serif; }
      .text-sm { font-size: 10px; }
      .text-md { font-size: 12px; }
      .text-lg { font-size: 14px; }
      .border { stroke: #374151; stroke-width: 2; fill: none; }
      .flow-arrow { stroke: #06b6d4; stroke-width: 2; fill: none; marker-end: url(#arrowhead); }
      .data-flow { stroke: #10b981; stroke-width: 2; fill: none; marker-end: url(#arrowhead); }
      .alert-flow { stroke: #ef4444; stroke-width: 2; fill: none; marker-end: url(#arrowhead); }
      .component { fill: #374151; stroke: #4b5563; stroke-width: 1; }
    </style>
  </defs>
  
  <!-- Background -->
  <rect width="1200" height="800" class="bg"/>
  
  <!-- Title -->
  <text x="600" y="30" class="text text-lg" text-anchor="middle" font-weight="bold">
    Sistema Completo de Auditoría y Logging - Flujo de Datos
  </text>
  
  <!-- Input Layer -->
  <g transform="translate(50, 80)">
    <text x="0" y="0" class="text text-md" font-weight="bold">Entrada de Requests</text>
    
    <!-- MCP Client -->
    <rect x="0" y="20" width="120" height="60" rx="8" class="primary"/>
    <text x="60" y="45" class="text text-sm" text-anchor="middle" font-weight="bold">MCP Client</text>
    <text x="60" y="60" class="text text-sm" text-anchor="middle">Tool Requests</text>
    
    <!-- HTTP Clients -->
    <rect x="140" y="20" width="120" height="60" rx="8" class="primary"/>
    <text x="200" y="45" class="text text-sm" text-anchor="middle" font-weight="bold">HTTP Clients</text>
    <text x="200" y="60" class="text text-sm" text-anchor="middle">API Calls</text>
  </g>
  
  <!-- Middleware Layer -->
  <g transform="translate(50, 200)">
    <text x="0" y="0" class="text text-md" font-weight="bold">Middleware de Tracking</text>
    
    <!-- Request Tracking -->
    <rect x="0" y="20" width="260" height="80" rx="8" class="secondary"/>
    <text x="130" y="45" class="text text-sm" text-anchor="middle" font-weight="bold">Request Tracking Middleware</text>
    <text x="130" y="60" class="text text-sm" text-anchor="middle">• Genera Request ID único</text>
    <text x="130" y="75" class="text text-sm" text-anchor="middle">• Establece contexto CLS</text>
    <text x="130" y="90" class="text text-sm" text-anchor="middle">• Captura metadata del cliente</text>
  </g>
  
  <!-- Core Server -->
  <g transform="translate(400, 200)">
    <rect x="0" y="20" width="200" height="80" rx="8" class="primary"/>
    <text x="100" y="45" class="text text-sm" text-anchor="middle" font-weight="bold">MCP Server Core</text>
    <text x="100" y="60" class="text text-sm" text-anchor="middle">• Procesamiento de herramientas</text>
    <text x="100" y="75" class="text text-sm" text-anchor="middle">• Lógica de negocio</text>
    <text x="100" y="90" class="text text-sm" text-anchor="middle">• Instrumentación automática</text>
  </g>
  
  <!-- Logger Layer -->
  <g transform="translate(50, 350)">
    <text x="0" y="0" class="text text-md" font-weight="bold">Loggers Especializados</text>
    
    <!-- Audit Logger -->
    <rect x="0" y="20" width="130" height="80" rx="8" class="warning"/>
    <text x="65" y="40" class="text text-sm" text-anchor="middle" font-weight="bold">Audit Logger</text>
    <text x="65" y="55" class="text text-sm" text-anchor="middle">• Eventos de seguridad</text>
    <text x="65" y="70" class="text text-sm" text-anchor="middle">• Cumplimiento</text>
    <text x="65" y="85" class="text text-sm" text-anchor="middle">• Trazabilidad</text>
    
    <!-- Performance Logger -->
    <rect x="150" y="20" width="130" height="80" rx="8" class="accent"/>
    <text x="215" y="40" class="text text-sm" text-anchor="middle" font-weight="bold">Performance Logger</text>
    <text x="215" y="55" class="text text-sm" text-anchor="middle">• Métricas de timing</text>
    <text x="215" y="70" class="text text-sm" text-anchor="middle">• Uso de recursos</text>
    <text x="215" y="85" class="text text-sm" text-anchor="middle">• Checkpoints</text>
    
    <!-- Error Logger -->
    <rect x="300" y="20" width="130" height="80" rx="8" class="error"/>
    <text x="365" y="40" class="text text-sm" text-anchor="middle" font-weight="bold">Error Logger</text>
    <text x="365" y="55" class="text text-sm" text-anchor="middle">• Captura de errores</text>
    <text x="365" y="70" class="text text-sm" text-anchor="middle">• Análisis de patrones</text>
    <text x="365" y="85" class="text text-sm" text-anchor="middle">• Recovery automático</text>
    
    <!-- App Logger -->
    <rect x="450" y="20" width="130" height="80" rx="8" class="component"/>
    <text x="515" y="40" class="text text-sm" text-anchor="middle" font-weight="bold">App Logger</text>
    <text x="515" y="55" class="text text-sm" text-anchor="middle">• Logs generales</text>
    <text x="515" y="70" class="text text-sm" text-anchor="middle">• Flujo de aplicación</text>
    <text x="515" y="85" class="text text-sm" text-anchor="middle">• Debug info</text>
  </g>
  
  <!-- Storage Layer -->
  <g transform="translate(50, 500)">
    <text x="0" y="0" class="text text-md" font-weight="bold">Almacenamiento y Transporte</text>
    
    <!-- File Storage -->
    <rect x="0" y="20" width="100" height="60" rx="8" class="component"/>
    <text x="50" y="40" class="text text-sm" text-anchor="middle" font-weight="bold">Archivos</text>
    <text x="50" y="50" class="text text-sm" text-anchor="middle">Rotating</text>
    <text x="50" y="60" class="text text-sm" text-anchor="middle">Logs</text>
    
    <!-- Console Output -->
    <rect x="120" y="20" width="100" height="60" rx="8" class="component"/>
    <text x="170" y="40" class="text text-sm" text-anchor="middle" font-weight="bold">Console</text>
    <text x="170" y="50" class="text text-sm" text-anchor="middle">Development</text>
    <text x="170" y="60" class="text text-sm" text-anchor="middle">Output</text>
    
    <!-- Elasticsearch -->
    <rect x="240" y="20" width="100" height="60" rx="8" class="accent"/>
    <text x="290" y="40" class="text text-sm" text-anchor="middle" font-weight="bold">Elasticsearch</text>
    <text x="290" y="50" class="text text-sm" text-anchor="middle">Structured</text>
    <text x="290" y="60" class="text text-sm" text-anchor="middle">Search</text>
    
    <!-- External APIs -->
    <rect x="360" y="20" width="100" height="60" rx="8" class="secondary"/>
    <text x="410" y="40" class="text text-sm" text-anchor="middle" font-weight="bold">External APIs</text>
    <text x="410" y="50" class="text text-sm" text-anchor="middle">Slack/Email</text>
    <text x="410" y="60" class="text text-sm" text-anchor="middle">Alerts</text>
  </g>
  
  <!-- Analysis Layer -->
  <g transform="translate(700, 350)">
    <text x="0" y="0" class="text text-md" font-weight="bold">Análisis y Alertas</text>
    
    <!-- Pattern Detection -->
    <rect x="0" y="20" width="140" height="60" rx="8" class="warning"/>
    <text x="70" y="40" class="text text-sm" text-anchor="middle" font-weight="bold">Detección de</text>
    <text x="70" y="50" class="text text-sm" text-anchor="middle">Patrones</text>
    <text x="70" y="60" class="text text-sm" text-anchor="middle">• Anomalías</text>
    
    <!-- Alert System -->
    <rect x="160" y="20" width="140" height="60" rx="8" class="error"/>
    <text x="230" y="40" class="text text-sm" text-anchor="middle" font-weight="bold">Sistema de</text>
    <text x="230" y="50" class="text text-sm" text-anchor="middle">Alertas</text>
    <text x="230" y="60" class="text text-sm" text-anchor="middle">• Umbrales</text>
    
    <!-- Recovery System -->
    <rect x="0" y="100" width="140" height="60" rx="8" class="success"/>
    <text x="70" y="120" class="text text-sm" text-anchor="middle" font-weight="bold">Sistema de</text>
    <text x="70" y="130" class="text text-sm" text-anchor="middle">Recovery</text>
    <text x="70" y="140" class="text text-sm" text-anchor="middle">• Auto-heal</text>
    
    <!-- Metrics Aggregation -->
    <rect x="160" y="100" width="140" height="60" rx="8" class="accent"/>
    <text x="230" y="120" class="text text-sm" text-anchor="middle" font-weight="bold">Agregación de</text>
    <text x="230" y="130" class="text text-sm" text-anchor="middle">Métricas</text>
    <text x="230" y="140" class="text text-sm" text-anchor="middle">• Dashboards</text>
  </g>
  
  <!-- Visualization Layer -->
  <g transform="translate(700, 500)">
    <text x="0" y="0" class="text text-md" font-weight="bold">Visualización y Monitoreo</text>
    
    <!-- Kibana -->
    <rect x="0" y="20" width="100" height="60" rx="8" class="accent"/>
    <text x="50" y="40" class="text text-sm" text-anchor="middle" font-weight="bold">Kibana</text>
    <text x="50" y="50" class="text text-sm" text-anchor="middle">Log</text>
    <text x="50" y="60" class="text text-sm" text-anchor="middle">Exploration</text>
    
    <!-- Grafana -->
    <rect x="120" y="20" width="100" height="60" rx="8" class="warning"/>
    <text x="170" y="40" class="text text-sm" text-anchor="middle" font-weight="bold">Grafana</text>
    <text x="170" y="50" class="text text-sm" text-anchor="middle">Metrics</text>
    <text x="170" y="60" class="text text-sm" text-anchor="middle">Dashboards</text>
    
    <!-- Health Endpoints -->
    <rect x="240" y="20" width="100" height="60" rx="8" class="secondary"/>
    <text x="290" y="40" class="text text-sm" text-anchor="middle" font-weight="bold">Health</text>
    <text x="290" y="50" class="text text-sm" text-anchor="middle">Endpoints</text>
    <text x="290" y="60" class="text text-sm" text-anchor="middle">• Status</text>
  </g>
  
  <!-- Flow Arrows -->
  <!-- Input to Middleware -->
  <path d="M170 140 L180 200" class="flow-arrow"/>
  
  <!-- Middleware to Core -->
  <path d="M310 240 L400 240" class="flow-arrow"/>
  
  <!-- Core to Loggers -->
  <path d="M500 300 L300 350" class="flow-arrow"/>
  
  <!-- Loggers to Storage -->
  <path d="M300 430 L300 500" class="data-flow"/>
  
  <!-- Loggers to Analysis -->
  <path d="M580 390 L700 390" class="flow-arrow"/>
  
  <!-- Analysis to Alerts -->
  <path d="M840 380 L840 300 L950 300" class="alert-flow"/>
  
  <!-- Storage to Visualization -->
  <path d="M340 580 L700 580" class="data-flow"/>
  
  <!-- Arrow markers -->
  <defs>
    <marker id="arrowhead" markerWidth="10" markerHeight="7" 
     refX="9" refY="3.5" orient="auto">
      <polygon points="0 0, 10 3.5, 0 7" fill="#06b6d4"/>
    </marker>
  </defs>
  
  <!-- CLS Context Indicator -->
  <g transform="translate(50, 650)">
    <rect x="0" y="0" width="600" height="60" rx="8" class="secondary" opacity="0.3"/>
    <text x="300" y="20" class="text text-md" text-anchor="middle" font-weight="bold">
      Continuation Local Storage (CLS) - Contexto Compartido
    </text>
    <text x="300" y="35" class="text text-sm" text-anchor="middle">
      Request ID • User ID • Session ID • Correlation ID • Timestamp
    </text>
    <text x="300" y="50" class="text text-sm" text-anchor="middle">
      Disponible automáticamente en todos los loggers sin pasar parámetros
    </text>
  </g>
  
  <!-- Legend -->
  <g transform="translate(1000, 650)">
    <text x="0" y="0" class="text text-sm" font-weight="bold">Leyenda:</text>
    <line x1="0" y1="15" x2="20" y2="15" class="flow-arrow"/>
    <text x="25" y="20" class="text text-sm">Flujo de requests</text>
    <line x1="0" y1="35" x2="20" y2="35" class="data-flow"/>
    <text x="25" y="40" class="text text-sm">Flujo de datos</text>
    <line x1="0" y1="55" x2="20" y2="55" class="alert-flow"/>
    <text x="25" y="60" class="text text-sm">Alertas críticas</text>
  </g>
</svg>