<svg viewBox="0 0 800 600" xmlns="http://www.w3.org/2000/svg">
  <defs>
    <style>
      .bg { fill: #1a1a1a; }
      .primary { fill: #4f46e5; }
      .secondary { fill: #06b6d4; }
      .accent { fill: #10b981; }
      .warning { fill: #f59e0b; }
      .error { fill: #ef4444; }
      .text { fill: #f8fafc; font-family: 'Arial', sans-serif; }
      .text-sm { font-size: 12px; }
      .text-md { font-size: 14px; }
      .text-lg { font-size: 16px; }
      .border { stroke: #374151; stroke-width: 2; fill: none; }
      .component { fill: #374151; }
    </style>
  </defs>
  
  <!-- Background -->
  <rect width="800" height="600" class="bg"/>
  
  <!-- Title -->
  <text x="400" y="30" class="text text-lg" text-anchor="middle" font-weight="bold">
    Arquitectura de Logging y Auditoría en MCP Server
  </text>
  
  <!-- MCP Server Core -->
  <rect x="320" y="80" width="160" height="80" rx="8" class="primary"/>
  <text x="400" y="115" class="text text-md" text-anchor="middle" font-weight="bold">MCP Server</text>
  <text x="400" y="135" class="text text-sm" text-anchor="middle">Core Application</text>
  
  <!-- Logger Middleware -->
  <rect x="300" y="200" width="200" height="60" rx="8" class="secondary"/>
  <text x="400" y="225" class="text text-md" text-anchor="middle" font-weight="bold">Logger Middleware</text>
  <text x="400" y="245" class="text text-sm" text-anchor="middle">Request/Response Interceptor</text>
  
  <!-- Log Processors -->
  <g>
    <!-- Structured Logger -->
    <rect x="50" y="320" width="140" height="80" rx="8" class="accent"/>
    <text x="120" y="350" class="text text-sm" text-anchor="middle" font-weight="bold">Structured</text>
    <text x="120" y="365" class="text text-sm" text-anchor="middle">Logger</text>
    <text x="120" y="380" class="text text-sm" text-anchor="middle">(Winston/Pino)</text>
    
    <!-- Audit Logger -->
    <rect x="220" y="320" width="140" height="80" rx="8" class="warning"/>
    <text x="290" y="350" class="text text-sm" text-anchor="middle" font-weight="bold">Audit</text>
    <text x="290" y="365" class="text text-sm" text-anchor="middle">Logger</text>
    <text x="290" y="380" class="text text-sm" text-anchor="middle">(Security Events)</text>
    
    <!-- Performance Logger -->
    <rect x="390" y="320" width="140" height="80" rx="8" class="primary"/>
    <text x="460" y="350" class="text text-sm" text-anchor="middle" font-weight="bold">Performance</text>
    <text x="460" y="365" class="text text-sm" text-anchor="middle">Logger</text>
    <text x="460" y="380" class="text text-sm" text-anchor="middle">(Metrics/Traces)</text>
    
    <!-- Error Logger -->
    <rect x="560" y="320" width="140" height="80" rx="8" class="error"/>
    <text x="630" y="350" class="text text-sm" text-anchor="middle" font-weight="bold">Error</text>
    <text x="630" y="365" class="text text-sm" text-anchor="middle">Logger</text>
    <text x="630" y="380" class="text text-sm" text-anchor="middle">(Exceptions/Alerts)</text>
  </g>
  
  <!-- Storage Layer -->
  <g>
    <!-- File Storage -->
    <rect x="80" y="460" width="120" height="60" rx="8" class="component"/>
    <text x="140" y="485" class="text text-sm" text-anchor="middle" font-weight="bold">File Storage</text>
    <text x="140" y="500" class="text text-sm" text-anchor="middle">Rotating Logs</text>
    
    <!-- Database -->
    <rect x="240" y="460" width="120" height="60" rx="8" class="component"/>
    <text x="300" y="485" class="text text-sm" text-anchor="middle" font-weight="bold">Database</text>
    <text x="300" y="500" class="text text-sm" text-anchor="middle">Audit Records</text>
    
    <!-- External Systems -->
    <rect x="400" y="460" width="120" height="60" rx="8" class="component"/>
    <text x="460" y="485" class="text text-sm" text-anchor="middle" font-weight="bold">ELK Stack</text>
    <text x="460" y="500" class="text text-sm" text-anchor="middle">Centralized Logs</text>
    
    <!-- Monitoring -->
    <rect x="560" y="460" width="120" height="60" rx="8" class="component"/>
    <text x="620" y="485" class="text text-sm" text-anchor="middle" font-weight="bold">Monitoring</text>
    <text x="620" y="500" class="text text-sm" text-anchor="middle">Alerts/Dashboards</text>
  </g>
  
  <!-- Arrows -->
  <!-- MCP to Middleware -->
  <path d="M400 160 L400 200" class="border" marker-end="url(#arrowhead)"/>
  
  <!-- Middleware to Processors -->
  <path d="M320 260 L120 320" class="border" marker-end="url(#arrowhead)"/>
  <path d="M360 260 L290 320" class="border" marker-end="url(#arrowhead)"/>
  <path d="M440 260 L460 320" class="border" marker-end="url(#arrowhead)"/>
  <path d="M480 260 L630 320" class="border" marker-end="url(#arrowhead)"/>
  
  <!-- Processors to Storage -->
  <path d="M120 400 L140 460" class="border" marker-end="url(#arrowhead)"/>
  <path d="M290 400 L300 460" class="border" marker-end="url(#arrowhead)"/>
  <path d="M460 400 L460 460" class="border" marker-end="url(#arrowhead)"/>
  <path d="M630 400 L620 460" class="border" marker-end="url(#arrowhead)"/>
  
  <!-- Arrow marker -->
  <defs>
    <marker id="arrowhead" markerWidth="10" markerHeight="7" 
     refX="9" refY="3.5" orient="auto">
      <polygon points="0 0, 10 3.5, 0 7" fill="#374151"/>
    </marker>
  </defs>
  
  <!-- Legend -->
  <text x="50" y="570" class="text text-sm" font-weight="bold">Flujo de Información:</text>
  <text x="200" y="570" class="text text-sm">Captura → Procesamiento → Almacenamiento → Análisis</text>
</svg>