<svg viewBox="0 0 800 600" xmlns="http://www.w3.org/2000/svg">
  <defs>
    <pattern id="grid" width="20" height="20" patternUnits="userSpaceOnUse">
      <path d="M 20 0 L 0 0 0 20" fill="none" stroke="#2a2a2a" stroke-width="0.5"/>
    </pattern>
  </defs>
  
  <!-- Background -->
  <rect width="800" height="600" fill="#1a1a1a"/>
  <rect width="800" height="600" fill="url(#grid)"/>
  
  <!-- Title -->
  <text x="400" y="30" text-anchor="middle" fill="#ffffff" font-size="20" font-weight="bold">
    Arquitectura de Deployment MCP Server
  </text>
  
  <!-- Development Environment -->
  <rect x="50" y="60" width="150" height="120" fill="#2d4a7c" stroke="#4a90e2" stroke-width="2" rx="10"/>
  <text x="125" y="85" text-anchor="middle" fill="#ffffff" font-size="14" font-weight="bold">
    Desarrollo Local
  </text>
  <circle cx="125" cy="110" r="15" fill="#4caf50"/>
  <text x="125" y="115" text-anchor="middle" fill="#ffffff" font-size="10">
    MCP
  </text>
  <text x="125" y="140" text-anchor="middle" fill="#ffffff" font-size="10">
    Docker Compose
  </text>
  <text x="125" y="155" text-anchor="middle" fill="#ffffff" font-size="10">
    Hot Reload
  </text>
  
  <!-- CI/CD Pipeline -->
  <rect x="250" y="60" width="150" height="120" fill="#7c2d4a" stroke="#e24a4a" stroke-width="2" rx="10"/>
  <text x="325" y="85" text-anchor="middle" fill="#ffffff" font-size="14" font-weight="bold">
    CI/CD Pipeline
  </text>
  <rect x="270" y="95" width="110" height="15" fill="#ff6b6b" rx="3"/>
  <text x="325" y="106" text-anchor="middle" fill="#ffffff" font-size="9">
    GitHub Actions
  </text>
  <rect x="270" y="115" width="110" height="15" fill="#4ecdc4" rx="3"/>
  <text x="325" y="126" text-anchor="middle" fill="#ffffff" font-size="9">
    Tests + Build
  </text>
  <rect x="270" y="135" width="110" height="15" fill="#45b7d1" rx="3"/>
  <text x="325" y="146" text-anchor="middle" fill="#ffffff" font-size="9">
    Security Scan
  </text>
  <rect x="270" y="155" width="110" height="15" fill="#96ceb4" rx="3"/>
  <text x="325" y="166" text-anchor="middle" fill="#ffffff" font-size="9">
    Deploy
  </text>
  
  <!-- Production Environment -->
  <rect x="450" y="60" width="300" height="120" fill="#2d7c4a" stroke="#4ae24a" stroke-width="2" rx="10"/>
  <text x="600" y="85" text-anchor="middle" fill="#ffffff" font-size="14" font-weight="bold">
    Entorno de Producción
  </text>
  
  <!-- Load Balancer -->
  <rect x="470" y="95" width="80" height="40" fill="#ffa726" stroke="#ff9800" stroke-width="2" rx="5"/>
  <text x="510" y="115" text-anchor="middle" fill="#ffffff" font-size="10">
    Load Balancer
  </text>
  
  <!-- MCP Servers -->
  <rect x="570" y="95" width="50" height="25" fill="#4caf50" stroke="#388e3c" stroke-width="1" rx="3"/>
  <text x="595" y="110" text-anchor="middle" fill="#ffffff" font-size="8">
    MCP 1
  </text>
  <rect x="570" y="125" width="50" height="25" fill="#4caf50" stroke="#388e3c" stroke-width="1" rx="3"/>
  <text x="595" y="140" text-anchor="middle" fill="#ffffff" font-size="8">
    MCP 2
  </text>
  <rect x="570" y="155" width="50" height="25" fill="#4caf50" stroke="#388e3c" stroke-width="1" rx="3"/>
  <text x="595" y="170" text-anchor="middle" fill="#ffffff" font-size="8">
    MCP 3
  </text>
  
  <!-- Database -->
  <rect x="640" y="110" width="50" height="40" fill="#9c27b0" stroke="#7b1fa2" stroke-width="2" rx="5"/>
  <text x="665" y="135" text-anchor="middle" fill="#ffffff" font-size="10">
    Database
  </text>
  
  <!-- Cache -->
  <rect x="700" y="110" width="40" height="40" fill="#ff5722" stroke="#d84315" stroke-width="2" rx="5"/>
  <text x="720" y="135" text-anchor="middle" fill="#ffffff" font-size="10">
    Redis
  </text>
  
  <!-- Monitoring -->
  <rect x="450" y="200" width="300" height="80" fill="#424242" stroke="#757575" stroke-width="2" rx="10"/>
  <text x="600" y="225" text-anchor="middle" fill="#ffffff" font-size="14" font-weight="bold">
    Monitoring & Observabilidad
  </text>
  
  <rect x="470" y="235" width="70" height="25" fill="#2196f3" rx="3"/>
  <text x="505" y="250" text-anchor="middle" fill="#ffffff" font-size="9">
    Prometheus
  </text>
  
  <rect x="550" y="235" width="70" height="25" fill="#ff9800" rx="3"/>
  <text x="585" y="250" text-anchor="middle" fill="#ffffff" font-size="9">
    Grafana
  </text>
  
  <rect x="630" y="235" width="70" height="25" fill="#4caf50" rx="3"/>
  <text x="665" y="250" text-anchor="middle" fill="#ffffff" font-size="9">
    Jaeger
  </text>
  
  <!-- Security -->
  <rect x="50" y="200" width="150" height="80" fill="#795548" stroke="#8d6e63" stroke-width="2" rx="10"/>
  <text x="125" y="225" text-anchor="middle" fill="#ffffff" font-size="14" font-weight="bold">
    Seguridad
  </text>
  <text x="125" y="245" text-anchor="middle" fill="#ffffff" font-size="10">
    🔒 TLS/SSL
  </text>
  <text x="125" y="260" text-anchor="middle" fill="#ffffff" font-size="10">
    🛡️ WAF
  </text>
  <text x="125" y="275" text-anchor="middle" fill="#ffffff" font-size="10">
    🔑 JWT Auth
  </text>
  
  <!-- Client Access -->
  <rect x="50" y="320" width="700" height="80" fill="#37474f" stroke="#546e7a" stroke-width="2" rx="10"/>
  <text x="400" y="345" text-anchor="middle" fill="#ffffff" font-size="14" font-weight="bold">
    Acceso de Clientes
  </text>
  
  <rect x="100" y="355" width="100" height="30" fill="#3f51b5" rx="5"/>
  <text x="150" y="375" text-anchor="middle" fill="#ffffff" font-size="10">
    Claude Desktop
  </text>
  
  <rect x="220" y="355" width="100" height="30" fill="#e91e63" rx="5"/>
  <text x="270" y="375" text-anchor="middle" fill="#ffffff" font-size="10">
    VS Code
  </text>
  
  <rect x="340" y="355" width="100" height="30" fill="#00bcd4" rx="5"/>
  <text x="390" y="375" text-anchor="middle" fill="#ffffff" font-size="10">
    Web Interface
  </text>
  
  <rect x="460" y="355" width="100" height="30" fill="#8bc34a" rx="5"/>
  <text x="510" y="375" text-anchor="middle" fill="#ffffff" font-size="10">
    Mobile App
  </text>
  
  <rect x="580" y="355" width="100" height="30" fill="#ff5722" rx="5"/>
  <text x="630" y="375" text-anchor="middle" fill="#ffffff" font-size="10">
    API Direct
  </text>
  
  <!-- Arrows -->
  <defs>
    <marker id="arrowhead" markerWidth="10" markerHeight="7" refX="10" refY="3.5" orient="auto">
      <polygon points="0 0, 10 3.5, 0 7" fill="#ffffff"/>
    </marker>
  </defs>
  
  <!-- Dev to CI/CD -->
  <line x1="200" y1="120" x2="250" y2="120" stroke="#ffffff" stroke-width="2" marker-end="url(#arrowhead)"/>
  
  <!-- CI/CD to Production -->
  <line x1="400" y1="120" x2="450" y2="120" stroke="#ffffff" stroke-width="2" marker-end="url(#arrowhead)"/>
  
  <!-- Load Balancer to MCP Servers -->
  <line x1="550" y1="115" x2="570" y2="107" stroke="#ffffff" stroke-width="2" marker-end="url(#arrowhead)"/>
  <line x1="550" y1="115" x2="570" y2="137" stroke="#ffffff" stroke-width="2" marker-end="url(#arrowhead)"/>
  <line x1="550" y1="115" x2="570" y2="167" stroke="#ffffff" stroke-width="2" marker-end="url(#arrowhead)"/>
  
  <!-- MCP to Database -->
  <line x1="620" y1="125" x2="640" y2="130" stroke="#ffffff" stroke-width="2" marker-end="url(#arrowhead)"/>
  
  <!-- MCP to Cache -->
  <line x1="620" y1="125" x2="700" y2="130" stroke="#ffffff" stroke-width="2" marker-end="url(#arrowhead)"/>
  
  <!-- Clients to Production -->
  <line x1="400" y1="355" x2="400" y2="320" stroke="#ffffff" stroke-width="2" marker-end="url(#arrowhead)"/>
  
  <!-- Performance Metrics -->
  <rect x="50" y="450" width="700" height="100" fill="#263238" stroke="#37474f" stroke-width="2" rx="10"/>
  <text x="400" y="475" text-anchor="middle" fill="#ffffff" font-size="14" font-weight="bold">
    Métricas de Rendimiento Objetivo
  </text>
  
  <text x="150" y="500" text-anchor="middle" fill="#4caf50" font-size="12" font-weight="bold">
    Latencia &lt; 100ms
  </text>
  <text x="300" y="500" text-anchor="middle" fill="#2196f3" font-size="12" font-weight="bold">
    Uptime &gt; 99.9%
  </text>
  <text x="450" y="500" text-anchor="middle" fill="#ff9800" font-size="12" font-weight="bold">
    CPU &lt; 70%
  </text>
  <text x="600" y="500" text-anchor="middle" fill="#e91e63" font-size="12" font-weight="bold">
    Memory &lt; 80%
  </text>
  
  <text x="150" y="520" text-anchor="middle" fill="#9c27b0" font-size="12" font-weight="bold">
    RPS &gt; 1000
  </text>
  <text x="300" y="520" text-anchor="middle" fill="#795548" font-size="12" font-weight="bold">
    Error Rate &lt; 0.1%
  </text>
  <text x="450" y="520" text-anchor="middle" fill="#607d8b" font-size="12" font-weight="bold">
    Recovery &lt; 30s
  </text>
  <text x="600" y="520" text-anchor="middle" fill="#8bc34a" font-size="12" font-weight="bold">
    Scale Auto
  </text>
</svg>