<svg viewBox="0 0 800 600" xmlns="http://www.w3.org/2000/svg">
  <!-- Background -->
  <rect width="800" height="600" fill="#0f172a"/>
  
  <!-- Title -->
  <text x="400" y="40" text-anchor="middle" font-size="24" font-weight="bold" fill="#f8fafc">Prompts Dinámicos MCP</text>
  
  <!-- User Context Box -->
  <rect x="50" y="80" width="200" height="120" fill="#e3f2fd" stroke="#1976d2" stroke-width="2" rx="10"/>
  <text x="150" y="105" text-anchor="middle" font-size="16" font-weight="bold" fill="#1976d2">Contexto del Usuario</text>
  <text x="60" y="130" font-size="12" fill="#333">• Proyecto actual</text>
  <text x="60" y="145" font-size="12" fill="#333">• Archivos recientes</text>
  <text x="60" y="160" font-size="12" fill="#333">• Preferencias</text>
  <text x="60" y="175" font-size="12" fill="#333">• Historial</text>
  
  <!-- Dynamic Engine -->
  <rect x="300" y="80" width="200" height="120" fill="#f3e5f5" stroke="#7b1fa2" stroke-width="2" rx="10"/>
  <text x="400" y="105" text-anchor="middle" font-size="16" font-weight="bold" fill="#7b1fa2">Motor Dinámico</text>
  <text x="310" y="130" font-size="12" fill="#333">• Análisis de contexto</text>
  <text x="310" y="145" font-size="12" fill="#333">• Selección de plantillas</text>
  <text x="310" y="160" font-size="12" fill="#333">• Personalización</text>
  <text x="310" y="175" font-size="12" fill="#333">• Generación adaptativa</text>
  
  <!-- Output Prompts -->
  <rect x="550" y="80" width="200" height="120" fill="#e8f5e8" stroke="#388e3c" stroke-width="2" rx="10"/>
  <text x="650" y="105" text-anchor="middle" font-size="16" font-weight="bold" fill="#388e3c">Prompts Personalizados</text>
  <text x="560" y="130" font-size="12" fill="#333">• Contextualizados</text>
  <text x="560" y="145" font-size="12" fill="#333">• Relevantes</text>
  <text x="560" y="160" font-size="12" fill="#333">• Ejecutables</text>
  <text x="560" y="175" font-size="12" fill="#333">• Eficientes</text>
  
  <!-- Arrows -->
  <path d="M250 140 L300 140" stroke="#666" stroke-width="2" marker-end="url(#arrowhead)"/>
  <path d="M500 140 L550 140" stroke="#666" stroke-width="2" marker-end="url(#arrowhead)"/>
  
  <!-- Examples Section -->
  <text x="400" y="280" text-anchor="middle" font-size="18" font-weight="bold" fill="#f8fafc">Ejemplos de Aplicación</text>
  
  <!-- Example 1 -->
  <rect x="50" y="310" width="220" height="100" fill="#fff3e0" stroke="#f57c00" stroke-width="2" rx="8"/>
  <text x="160" y="335" text-anchor="middle" font-size="14" font-weight="bold" fill="#f57c00">Desarrollo de Software</text>
  <text x="60" y="355" font-size="11" fill="#333">Genera prompts para:</text>
  <text x="60" y="370" font-size="11" fill="#333">• Code review contextual</text>
  <text x="60" y="385" font-size="11" fill="#333">• Documentación automática</text>
  <text x="60" y="400" font-size="11" fill="#333">• Testing estratégico</text>
  
  <!-- Example 2 -->
  <rect x="290" y="310" width="220" height="100" fill="#fce4ec" stroke="#c2185b" stroke-width="2" rx="8"/>
  <text x="400" y="335" text-anchor="middle" font-size="14" font-weight="bold" fill="#c2185b">Análisis de Datos</text>
  <text x="300" y="355" font-size="11" fill="#333">Genera prompts para:</text>
  <text x="300" y="370" font-size="11" fill="#333">• Exploración de datasets</text>
  <text x="300" y="385" font-size="11" fill="#333">• Visualizaciones relevantes</text>
  <text x="300" y="400" font-size="11" fill="#333">• Insights automáticos</text>
  
  <!-- Example 3 -->
  <rect x="530" y="310" width="220" height="100" fill="#e1f5fe" stroke="#0277bd" stroke-width="2" rx="8"/>
  <text x="640" y="335" text-anchor="middle" font-size="14" font-weight="bold" fill="#0277bd">Gestión de Proyectos</text>
  <text x="540" y="355" font-size="11" fill="#333">Genera prompts para:</text>
  <text x="540" y="370" font-size="11" fill="#333">• Planificación adaptativa</text>
  <text x="540" y="385" font-size="11" fill="#333">• Seguimiento inteligente</text>
  <text x="540" y="400" font-size="11" fill="#333">• Reportes automáticos</text>
  
  <!-- Benefits Section -->
  <text x="400" y="480" text-anchor="middle" font-size="18" font-weight="bold" fill="#f8fafc">Beneficios Clave</text>
  
  <rect x="100" y="500" width="150" height="60" fill="#e8f5e8" stroke="#4caf50" stroke-width="2" rx="8"/>
  <text x="175" y="520" text-anchor="middle" font-size="12" font-weight="bold" fill="#4caf50">Adaptabilidad</text>
  <text x="175" y="540" text-anchor="middle" font-size="10" fill="#333">Se ajusta al contexto</text>
  <text x="175" y="550" text-anchor="middle" font-size="10" fill="#333">del usuario actual</text>
  
  <rect x="325" y="500" width="150" height="60" fill="#fff3e0" stroke="#ff9800" stroke-width="2" rx="8"/>
  <text x="400" y="520" text-anchor="middle" font-size="12" font-weight="bold" fill="#ff9800">Eficiencia</text>
  <text x="400" y="540" text-anchor="middle" font-size="10" fill="#333">Reduce tiempo de</text>
  <text x="400" y="550" text-anchor="middle" font-size="10" fill="#333">configuración manual</text>
  
  <rect x="550" y="500" width="150" height="60" fill="#e3f2fd" stroke="#2196f3" stroke-width="2" rx="8"/>
  <text x="625" y="520" text-anchor="middle" font-size="12" font-weight="bold" fill="#2196f3">Consistencia</text>
  <text x="625" y="540" text-anchor="middle" font-size="10" fill="#333">Mantiene calidad</text>
  <text x="625" y="550" text-anchor="middle" font-size="10" fill="#333">y estándares</text>
  
  <!-- Arrow marker definition -->
  <defs>
    <marker id="arrowhead" markerWidth="10" markerHeight="7" refX="9" refY="3.5" orient="auto">
      <polygon points="0 0, 10 3.5, 0 7" fill="#666"/>
    </marker>
  </defs>
</svg>