<svg viewBox="0 0 800 600" xmlns="http://www.w3.org/2000/svg">
  <defs>
    <pattern id="grid" width="20" height="20" patternUnits="userSpaceOnUse">
      <path d="M 20 0 L 0 0 0 20" fill="none" stroke="#2a2a2a" stroke-width="1"/>
    </pattern>
  </defs>
  
  <!-- Background -->
  <rect width="800" height="600" fill="#1a1a1a"/>
  <rect width="800" height="600" fill="url(#grid)" opacity="0.1"/>
  
  <!-- Title -->
  <text x="400" y="30" text-anchor="middle" fill="#f0f0f0" font-size="24" font-weight="bold">
    Arquitectura de Seguridad MCP Server
  </text>
  
  <!-- Outer Layer - Network Security -->
  <rect x="50" y="80" width="700" height="480" fill="none" stroke="#ff6b6b" stroke-width="3" rx="10"/>
  <text x="70" y="100" fill="#ff6b6b" font-size="16" font-weight="bold">Capa 1: Seguridad de Red</text>
  <text x="70" y="120" fill="#ff6b6b" font-size="12">• Firewall • Rate Limiting • DDoS Protection</text>
  
  <!-- Second Layer - Transport Security -->
  <rect x="100" y="140" width="600" height="380" fill="none" stroke="#4ecdc4" stroke-width="3" rx="10"/>
  <text x="120" y="160" fill="#4ecdc4" font-size="16" font-weight="bold">Capa 2: Seguridad de Transporte</text>
  <text x="120" y="180" fill="#4ecdc4" font-size="12">• TLS/SSL • Certificados • Encryción en Tránsito</text>
  
  <!-- Third Layer - Application Security -->
  <rect x="150" y="200" width="500" height="280" fill="none" stroke="#45b7d1" stroke-width="3" rx="10"/>
  <text x="170" y="220" fill="#45b7d1" font-size="16" font-weight="bold">Capa 3: Seguridad de Aplicación</text>
  <text x="170" y="240" fill="#45b7d1" font-size="12">• Validación de Entrada • Sanitización • CORS</text>
  
  <!-- Fourth Layer - Authentication -->
  <rect x="200" y="260" width="400" height="180" fill="none" stroke="#f7b731" stroke-width="3" rx="10"/>
  <text x="220" y="280" fill="#f7b731" font-size="16" font-weight="bold">Capa 4: Autenticación</text>
  <text x="220" y="300" fill="#f7b731" font-size="12">• JWT • OAuth2 • API Keys • MFA</text>
  
  <!-- Inner Core - Data Security -->
  <rect x="250" y="320" width="300" height="80" fill="none" stroke="#5f27cd" stroke-width="3" rx="10"/>
  <text x="270" y="340" fill="#5f27cd" font-size="16" font-weight="bold">Núcleo: Datos</text>
  <text x="270" y="360" fill="#5f27cd" font-size="12">• Encryción • Hashing • Secrets</text>
  
  <!-- Data Flow Arrows -->
  <path d="M 400 420 L 400 480" stroke="#ffffff" stroke-width="2" marker-end="url(#arrowhead)"/>
  <text x="410" y="455" fill="#ffffff" font-size="12">Flujo de Datos</text>
  
  <!-- Arrow marker -->
  <defs>
    <marker id="arrowhead" markerWidth="10" markerHeight="7" refX="9" refY="3.5" orient="auto">
      <polygon points="0 0, 10 3.5, 0 7" fill="#ffffff"/>
    </marker>
  </defs>
  
  <!-- Legend -->
  <rect x="550" y="500" width="200" height="80" fill="#2a2a2a" stroke="#444" rx="5"/>
  <text x="560" y="520" fill="#f0f0f0" font-size="14" font-weight="bold">Principios Clave:</text>
  <text x="560" y="540" fill="#f0f0f0" font-size="11">• Defensa en Profundidad</text>
  <text x="560" y="555" fill="#f0f0f0" font-size="11">• Principio de Menor Privilegio</text>
  <text x="560" y="570" fill="#f0f0f0" font-size="11">• Fail Secure</text>
</svg>