<svg viewBox="0 0 800 500" xmlns="http://www.w3.org/2000/svg">
  <defs>
    <style>
      .bg { fill: #0f172a; }
      .card { fill: #1e293b; stroke: #3b82f6; stroke-width: 2; }
      .pool { fill: #065f46; stroke: #10b981; stroke-width: 2; }
      .connection { fill: #10b981; stroke: #ffffff; stroke-width: 1; }
      .busy { fill: #dc2626; }
      .text { fill: #e2e8f0; font-family: Inter, system-ui, sans-serif; font-size: 12px; }
      .title { fill: #f1f5f9; font-family: Inter, system-ui, sans-serif; font-size: 14px; font-weight: bold; }
      .arrow { stroke: #10b981; stroke-width: 2; fill: none; marker-end: url(#arrowhead); }
    </style>
    <marker id="arrowhead" markerWidth="10" markerHeight="7" refX="9" refY="3.5" orient="auto">
      <polygon points="0 0, 10 3.5, 0 7" fill="#10b981" />
    </marker>
  </defs>
  
  <rect class="bg" width="800" height="500"/>
  
  <!-- Título -->
  <text x="400" y="30" class="title" text-anchor="middle" font-size="16">Connection Pool Architecture</text>
  
  <!-- MCP Server -->
  <rect x="50" y="100" width="150" height="120" class="card" rx="5"/>
  <text x="125" y="125" class="title" text-anchor="middle">MCP Server</text>
  <text x="125" y="145" class="text" text-anchor="middle">Request Handler 1</text>
  <text x="125" y="165" class="text" text-anchor="middle">Request Handler 2</text>
  <text x="125" y="185" class="text" text-anchor="middle">Request Handler 3</text>
  <text x="125" y="205" class="text" text-anchor="middle">Request Handler N</text>
  
  <!-- Connection Pool -->
  <rect x="300" y="80" width="200" height="160" class="pool" rx="5"/>
  <text x="400" y="105" class="title" text-anchor="middle">Connection Pool</text>
  <text x="400" y="125" class="text" text-anchor="middle">Max Size: 20 | Min Size: 5</text>
  
  <!-- Available Connections -->
  <text x="320" y="150" class="text">Available:</text>
  <circle cx="330" cy="170" r="8" class="connection"/>
  <circle cx="350" cy="170" r="8" class="connection"/>
  <circle cx="370" cy="170" r="8" class="connection"/>
  <circle cx="390" cy="170" r="8" class="connection"/>
  <circle cx="410" cy="170" r="8" class="connection"/>
  
  <!-- Busy Connections -->
  <text x="320" y="200" class="text">Busy:</text>
  <circle cx="330" cy="220" r="8" class="busy"/>
  <circle cx="350" cy="220" r="8" class="busy"/>
  <circle cx="370" cy="220" r="8" class="busy"/>
  
  <!-- Database -->
  <rect x="600" y="150" width="120" height="80" class="card" rx="5"/>
  <text x="660" y="175" class="title" text-anchor="middle">PostgreSQL</text>
  <text x="660" y="195" class="text" text-anchor="middle">Database</text>
  <text x="660" y="215" class="text" text-anchor="middle">Max Connections: 100</text>
  
  <!-- Arrows -->
  <line x1="200" y1="160" x2="300" y2="160" class="arrow"/>
  <line x1="500" y1="190" x2="600" y2="190" class="arrow"/>
  
  <!-- Metrics Box -->
  <rect x="50" y="280" width="700" height="180" class="card" rx="5"/>
  <text x="400" y="305" class="title" text-anchor="middle">Pool Configuration & Metrics</text>
  
  <text x="80" y="335" class="title">Configuration:</text>
  <text x="80" y="355" class="text">• initialSize: 5 (conexiones creadas al inicio)</text>
  <text x="80" y="375" class="text">• maxSize: 20 (máximo de conexiones simultáneas)</text>
  <text x="80" y="395" class="text">• maxIdleTime: 30min (tiempo antes de cerrar conexión inactiva)</text>
  <text x="80" y="415" class="text">• connectionTimeout: 5s (tiempo límite para obtener conexión)</text>
  
  <text x="420" y="335" class="title">Monitoring:</text>
  <text x="420" y="355" class="text">• Active Connections: 8/20</text>
  <text x="420" y="375" class="text">• Pool Hit Ratio: 98.5%</text>
  <text x="420" y="395" class="text">• Average Wait Time: 2ms</text>
  <text x="420" y="415" class="text">• Connection Leaks: 0</text>
</svg>